<?xml version="1.0" encoding="utf-8"?>
<!-- Generator: Adobe Illustrator 23.0.1, SVG Export Plug-In . SVG Version: 6.00 Build 0)  -->
<svg version="1.1" id="레이어_1" xmlns="http://www.w3.org/2000/svg" xmlns:xlink="http://www.w3.org/1999/xlink" x="0px"
	 y="0px" viewBox="0 0 141.7 85" style="enable-background:new 0 0 141.7 85;" xml:space="preserve">
<style type="text/css">
	.st0{fill:#FFFFFF;}
</style>
<g>
	<path class="st0" d="M113.6,47.1c-8.2,0-8.2-0.8-8.2-1.6c0-3.6,0-0.3,0-7.4v-5.8c0-8.5,0-7.7,8.2-7.7h18v8.9h-15.5
		c-0.3,0-0.6,0.1-0.9,0.2c-0.3,0.1-0.4,0.4-0.4,0.9v2.6c0,0.5,0.1,0.8,0.4,0.9c0.3,0.1,0.6,0.1,0.9,0.1h7.1c8.3,0,8.3,0,8.3,2.3
		c0,2.1,0,3.8,0,6.7v4.9c0,8.3,0,8.3-8.2,8.3h-18v-8.9h15.3c0.3,0,0.6,0,0.9-0.1c0.3-0.1,0.5-0.4,0.5-0.8v-2.3
		c0-0.4-0.2-0.7-0.5-0.9c-0.3-0.2-0.6-0.2-0.9-0.2H113.6z"/>
	<g>
		<path class="st0" d="M10.1,42.5v17.9h27.8c1.6,0,2.8-0.3,3.5-1c0.7-0.7,1.1-2,1.1-3.9v-9.2c0-0.7-0.1-1.3-0.3-1.8
			c-0.2-0.4-0.4-0.8-0.7-1c-0.3-0.2-0.6-0.4-0.9-0.5c-0.3-0.1-0.7-0.2-1-0.4c0,0,0,0,0.1,0H10.1z M31.7,54c0,0.2,0,0.4-0.1,0.5
			c-0.1,0.1-0.3,0.2-0.7,0.2h-9.6v-8.5h9.8c0.4,0,0.6,0.3,0.6,0.7V54z"/>
	</g>
	<g>
		<path class="st0" d="M39.7,42.5C39.7,42.5,39.6,42.5,39.7,42.5c0.2-0.1,0.6-0.3,0.9-0.4c0.3-0.1,0.6-0.3,0.9-0.5
			c0.3-0.2,0.5-0.6,0.7-1c0.2-0.4,0.3-1,0.3-1.8v-9.2c0-1.9-0.4-3.2-1.1-3.9c-0.7-0.7-1.9-1-3.5-1H12.3c-1.2,0-2.3,1-2.3,2.3v15.6
			H39.7z M31.7,38.2c0,0.4-0.2,0.7-0.6,0.7h-9.8v-8.5h9.6c0.4,0,0.6,0.1,0.7,0.2c0.1,0.1,0.1,0.3,0.1,0.5V38.2z"/>
	</g>
	<path class="st0" d="M74.9,46.5v8.2c0,1-0.1,1.9-0.2,2.6c-0.1,0.7-0.4,1.3-0.7,1.8c-0.4,0.4-0.9,0.8-1.7,1c-0.8,0.2-1.7,0.3-3,0.3
		H48.1c-1.2,0-2.2-0.1-3-0.3c-0.7-0.2-1.3-0.5-1.7-1c-0.4-0.4-0.6-1-0.7-1.8c-0.1-0.7-0.2-1.6-0.2-2.6V30.3c0-1,0.1-1.9,0.2-2.6
		c0.1-0.7,0.4-1.3,0.7-1.8c0.4-0.4,0.9-0.8,1.7-1c0.7-0.2,1.7-0.3,3-0.3h21.2c1.2,0,2.2,0.1,3,0.3c0.7,0.2,1.3,0.5,1.7,1
		c0.4,0.5,0.6,1.1,0.7,1.8c0.1,0.7,0.2,1.6,0.2,2.6v7.3H64.1v-5.7c0-0.4-0.1-0.8-0.2-0.9c-0.1-0.2-0.4-0.3-0.9-0.3h-8.1
		c-0.4,0-0.7,0.1-0.9,0.3c-0.1,0.2-0.2,0.5-0.2,0.9v21.3c0,0.4,0.1,0.8,0.2,0.9c0.1,0.2,0.4,0.3,0.9,0.3H63c0.4,0,0.7-0.1,0.9-0.3
		c0.1-0.2,0.2-0.5,0.2-0.9v-6.6H74.9z"/>
	<path class="st0" d="M86.7,39h18.7v6H86.7v15.4H74.9V26.9c0-1.2,1-2.3,2.3-2.3h28.2v6H86.7V39z"/>
</g>
</svg>
