<?xml version="1.0" encoding="utf-8"?>
<!-- Generator: Adobe Illustrator 23.0.1, SVG Export Plug-In . SVG Version: 6.00 Build 0)  -->
<svg version="1.1" id="레이어_1" xmlns="http://www.w3.org/2000/svg" xmlns:xlink="http://www.w3.org/1999/xlink" x="0px"
	 y="0px" viewBox="0 0 1920 1278.6" style="enable-background:new 0 0 1920 1278.6;" xml:space="preserve">
<style type="text/css">
	.st0{opacity:0.6;fill:#FFFFFF;}
	.st1{opacity:0.6;fill:#98CCD4;}
	.st2{fill:#98CCD4;}
</style>
<rect y="-1.4" class="st0" width="1920" height="1280"/>
<polyline class="st1" points="0,-1281.4 1920,-1281.4 1920,-1.4 0,-1.4 0,-1281.4 "/>
<path class="st2" d="M0-133V3.8v44.9v408.2c120,0,120,68,240,68c120,0,120-68,240-68s120,68,240,68c120,0,120-68,240-68
	c120,0,120,68,240,68c120,0,120-68,240-68c120,0,120,68,240,68c120,0,120-68,240-68V48.8V3.8V-133H0z"/>
</svg>
