<?xml version="1.0" encoding="utf-8"?>
<!-- Generator: Adobe Illustrator 23.0.1, SVG Export Plug-In . SVG Version: 6.00 Build 0)  -->
<svg version="1.1" id="레이어_1" xmlns="http://www.w3.org/2000/svg" xmlns:xlink="http://www.w3.org/1999/xlink" x="0px"
	 y="0px" viewBox="0 0 1920 1280" style="enable-background:new 0 0 1920 1280;" xml:space="preserve">
<style type="text/css">
	.st0{opacity:0.6;fill:#FFFFFF;}
	.st1{opacity:0.6;fill:#98CCD4;}
	.st2{fill:#98CCD4;}
</style>
<rect y="1280" class="st0" width="1920" height="1280"/>
<polyline class="st1" points="0,0 1920,0 1920,1280 0,1280 0,0 "/>
<path class="st2" d="M0,640v152.8V843v455.7c120,0,120,75.9,240,75.9c120,0,120-75.9,240-75.9s120,75.9,240,75.9
	c120,0,120-75.9,240-75.9c120,0,120,75.9,240,75.9c120,0,120-75.9,240-75.9c120,0,120,75.9,240,75.9c120,0,120-75.9,240-75.9V843
	v-50.2V640H0z"/>
</svg>
