<?xml version="1.0" encoding="utf-8"?>
<!-- Generator: Adobe Illustrator 23.0.1, SVG Export Plug-In . SVG Version: 6.00 Build 0)  -->
<svg version="1.1" id="레이어_1" xmlns="http://www.w3.org/2000/svg" xmlns:xlink="http://www.w3.org/1999/xlink" x="0px"
	 y="0px" viewBox="0 0 500 500" style="enable-background:new 0 0 500 500;" xml:space="preserve">
<style type="text/css">
	.st0{enable-background:new    ;}
	.st1{fill:none;stroke:#000000;stroke-width:20;stroke-miterlimit:10;}
</style>
<g class="st0">
	<path class="st1" d="M41.5,119.4l-74.2-14C-13.1,38.6,29.7,5.2,95.7,5.2c36.2,0,64.4,9.4,84.6,28.1c20.3,18.7,30.4,44.2,30.4,76.4
		c0,41.1-19.3,70-58,86.8c43.8,13.9,65.7,44.8,65.7,92.8c0,38.4-12,67.7-36,87.6c-24,20-54.5,30-91.6,30c-33.3,0-62.2-8.8-86.8-26.3
		c-24.6-17.5-39.8-47.2-45.7-89.1L34.1,279c3.8,38.8,20.7,58.2,50.8,58.2c13.9,0,24.9-4.7,33.1-14c8.2-9.3,12.3-22.6,12.3-40
		c0-35.4-20-53.1-59.9-53.1l-23.7,0.3v-63.1h23.7c12.7,0,22.7-1.2,30-3.6c7.2-2.4,13.3-7.4,18.1-15c4.9-7.6,7.3-17.6,7.3-30
		c0-31.6-13.1-47.4-39.2-47.4C63.5,71.4,48.6,87.4,41.5,119.4z"/>
</g>
<text transform="matrix(1 0 0 1 550.5161 390.8477)" style="font-family:'FranklinGothic-DemiCond'; font-size:584.6359px;">4</text>
</svg>
