<?xml version="1.0" encoding="utf-8"?>
<!-- Generator: Adobe Illustrator 23.0.1, SVG Export Plug-In . SVG Version: 6.00 Build 0)  -->
<svg version="1.1" id="레이어_1" xmlns="http://www.w3.org/2000/svg" xmlns:xlink="http://www.w3.org/1999/xlink" x="0px"
	 y="0px" viewBox="0 0 500 500" style="enable-background:new 0 0 500 500;" xml:space="preserve">
<style type="text/css">
	.st0{enable-background:new    ;}
	.st1{fill:none;stroke:#000000;stroke-width:20;stroke-miterlimit:10;}
</style>
<g class="st0">
	<path class="st1" d="M37.7,147.5l-77.9-15.7C-27.5,46.7,15.5,4.2,88.8,4.2c39.6,0,69.7,11,90.4,33c20.6,22,31,48.9,31,80.6
		c0,32.7-11.4,64.8-34.3,96.1c-22.8,31.3-65.8,67.9-128.7,109.8h168.4l-6.3,76.2H-40.2v-76.2C31.2,262.5,75.7,219.4,93.4,194.2
		c17.7-25.2,26.5-49.1,26.5-71.8c0-32.4-12.2-48.5-36.5-48.5C68.7,73.8,58,80.2,51.3,93C44.5,105.7,40,123.9,37.7,147.5z"/>
</g>
<text transform="matrix(1 0 0 1 545.5161 390.8477)" style="font-family:'FranklinGothic-DemiCond'; font-size:584.6359px;">3</text>
<text transform="matrix(1 0 0 1 550.5161 390.8477)" style="font-family:'FranklinGothic-DemiCond'; font-size:584.6359px;">4</text>
</svg>
